<mxfile host="Electron" modified="2024-06-16T06:02:38.997Z" agent="Mozilla/5.0 (X11; Linux x86_64) AppleWebKit/537.36 (KHTML, like Gecko) draw.io/24.5.3 Chrome/124.0.6367.207 Electron/30.0.6 Safari/537.36" etag="2e6Lht5DQHDrQVr6dZtP" version="24.5.3" type="device">
  <diagram id="nfGzeLYUbOt3rlWewVoZ" name="Page-1">
    <mxGraphModel dx="1280" dy="138" grid="1" gridSize="10" guides="1" tooltips="1" connect="1" arrows="1" fold="1" page="0" pageScale="1" pageWidth="850" pageHeight="1100" math="0" shadow="0">
      <root>
        <mxCell id="0" />
        <mxCell id="1" parent="0" />
        <mxCell id="uZ7EFnXtudNqGJnV6PuA-44" value="ad create or update" style="shape=umlFrame;whiteSpace=wrap;html=1;width=120;height=20;" parent="1" vertex="1">
          <mxGeometry x="-230" y="480" width="750" height="220" as="geometry" />
        </mxCell>
        <mxCell id="lSQBlbb4KLXAiIFJ1kEn-1" value="" style="ellipse;html=1;shape=startState;fillColor=#000000;strokeColor=#ff0000;" vertex="1" parent="1">
          <mxGeometry x="-220" y="585" width="30" height="30" as="geometry" />
        </mxCell>
        <mxCell id="lSQBlbb4KLXAiIFJ1kEn-2" value="" style="edgeStyle=orthogonalEdgeStyle;html=1;verticalAlign=bottom;endArrow=open;endSize=8;strokeColor=#ff0000;rounded=0;" edge="1" source="lSQBlbb4KLXAiIFJ1kEn-1" parent="1" target="lSQBlbb4KLXAiIFJ1kEn-3">
          <mxGeometry relative="1" as="geometry">
            <mxPoint x="-245" y="650" as="targetPoint" />
          </mxGeometry>
        </mxCell>
        <mxCell id="lSQBlbb4KLXAiIFJ1kEn-26" style="edgeStyle=orthogonalEdgeStyle;rounded=0;orthogonalLoop=1;jettySize=auto;html=1;endArrow=open;endFill=0;strokeColor=#FF0000;" edge="1" parent="1" source="lSQBlbb4KLXAiIFJ1kEn-3" target="lSQBlbb4KLXAiIFJ1kEn-21">
          <mxGeometry relative="1" as="geometry" />
        </mxCell>
        <mxCell id="lSQBlbb4KLXAiIFJ1kEn-42" value="no" style="edgeLabel;html=1;align=center;verticalAlign=middle;resizable=0;points=[];" vertex="1" connectable="0" parent="lSQBlbb4KLXAiIFJ1kEn-26">
          <mxGeometry x="0.7333" relative="1" as="geometry">
            <mxPoint x="20" as="offset" />
          </mxGeometry>
        </mxCell>
        <mxCell id="lSQBlbb4KLXAiIFJ1kEn-3" value="id given" style="rhombus;whiteSpace=wrap;html=1;fontColor=#000000;fillColor=#ffffc0;strokeColor=#ff0000;" vertex="1" parent="1">
          <mxGeometry x="-160" y="580" width="80" height="40" as="geometry" />
        </mxCell>
        <mxCell id="lSQBlbb4KLXAiIFJ1kEn-5" value="yes" style="edgeStyle=orthogonalEdgeStyle;html=1;align=left;verticalAlign=top;endArrow=open;endSize=8;strokeColor=#ff0000;rounded=0;" edge="1" source="lSQBlbb4KLXAiIFJ1kEn-3" parent="1" target="lSQBlbb4KLXAiIFJ1kEn-8">
          <mxGeometry x="-1" relative="1" as="geometry">
            <mxPoint x="-120" y="680" as="targetPoint" />
            <mxPoint as="offset" />
          </mxGeometry>
        </mxCell>
        <mxCell id="lSQBlbb4KLXAiIFJ1kEn-35" style="edgeStyle=orthogonalEdgeStyle;rounded=0;orthogonalLoop=1;jettySize=auto;html=1;strokeColor=#FF0000;endArrow=open;endFill=0;" edge="1" parent="1" source="lSQBlbb4KLXAiIFJ1kEn-8" target="lSQBlbb4KLXAiIFJ1kEn-11">
          <mxGeometry relative="1" as="geometry" />
        </mxCell>
        <mxCell id="lSQBlbb4KLXAiIFJ1kEn-44" value="yes" style="edgeLabel;html=1;align=center;verticalAlign=middle;resizable=0;points=[];" vertex="1" connectable="0" parent="lSQBlbb4KLXAiIFJ1kEn-35">
          <mxGeometry x="0.05" y="2" relative="1" as="geometry">
            <mxPoint x="-1" y="12" as="offset" />
          </mxGeometry>
        </mxCell>
        <mxCell id="lSQBlbb4KLXAiIFJ1kEn-37" style="edgeStyle=orthogonalEdgeStyle;rounded=0;orthogonalLoop=1;jettySize=auto;html=1;strokeColor=#FF0000;endArrow=open;endFill=0;" edge="1" parent="1" source="lSQBlbb4KLXAiIFJ1kEn-8" target="lSQBlbb4KLXAiIFJ1kEn-23">
          <mxGeometry relative="1" as="geometry" />
        </mxCell>
        <mxCell id="lSQBlbb4KLXAiIFJ1kEn-43" value="no" style="edgeLabel;html=1;align=center;verticalAlign=middle;resizable=0;points=[];" vertex="1" connectable="0" parent="lSQBlbb4KLXAiIFJ1kEn-37">
          <mxGeometry x="0.7" y="-1" relative="1" as="geometry">
            <mxPoint x="9" y="1" as="offset" />
          </mxGeometry>
        </mxCell>
        <mxCell id="lSQBlbb4KLXAiIFJ1kEn-8" value="resource found" style="rhombus;whiteSpace=wrap;html=1;fontColor=#000000;fillColor=#ffffc0;strokeColor=#ff0000;" vertex="1" parent="1">
          <mxGeometry x="-40" y="580" width="80" height="40" as="geometry" />
        </mxCell>
        <mxCell id="lSQBlbb4KLXAiIFJ1kEn-36" style="edgeStyle=orthogonalEdgeStyle;rounded=0;orthogonalLoop=1;jettySize=auto;html=1;strokeColor=#FF0000;endArrow=open;endFill=0;" edge="1" parent="1" source="lSQBlbb4KLXAiIFJ1kEn-11" target="lSQBlbb4KLXAiIFJ1kEn-16">
          <mxGeometry relative="1" as="geometry" />
        </mxCell>
        <mxCell id="lSQBlbb4KLXAiIFJ1kEn-45" value="no" style="edgeLabel;html=1;align=center;verticalAlign=middle;resizable=0;points=[];" vertex="1" connectable="0" parent="lSQBlbb4KLXAiIFJ1kEn-36">
          <mxGeometry x="-0.15" y="-1" relative="1" as="geometry">
            <mxPoint y="14" as="offset" />
          </mxGeometry>
        </mxCell>
        <mxCell id="lSQBlbb4KLXAiIFJ1kEn-39" style="edgeStyle=orthogonalEdgeStyle;rounded=0;orthogonalLoop=1;jettySize=auto;html=1;strokeColor=#FF0000;endArrow=open;endFill=0;" edge="1" parent="1" source="lSQBlbb4KLXAiIFJ1kEn-11" target="lSQBlbb4KLXAiIFJ1kEn-14">
          <mxGeometry relative="1" as="geometry">
            <mxPoint x="150" y="680" as="targetPoint" />
            <Array as="points">
              <mxPoint x="110" y="660" />
            </Array>
          </mxGeometry>
        </mxCell>
        <mxCell id="lSQBlbb4KLXAiIFJ1kEn-46" value="yes" style="edgeLabel;html=1;align=center;verticalAlign=middle;resizable=0;points=[];" vertex="1" connectable="0" parent="lSQBlbb4KLXAiIFJ1kEn-39">
          <mxGeometry x="0.3185" y="-1" relative="1" as="geometry">
            <mxPoint x="-4" y="9" as="offset" />
          </mxGeometry>
        </mxCell>
        <mxCell id="lSQBlbb4KLXAiIFJ1kEn-11" value="resource merged" style="rhombus;whiteSpace=wrap;html=1;fontColor=#000000;fillColor=#ffffc0;strokeColor=#ff0000;" vertex="1" parent="1">
          <mxGeometry x="80" y="580" width="80" height="40" as="geometry" />
        </mxCell>
        <mxCell id="lSQBlbb4KLXAiIFJ1kEn-34" style="edgeStyle=orthogonalEdgeStyle;rounded=0;orthogonalLoop=1;jettySize=auto;html=1;strokeColor=#FF0000;endArrow=open;endFill=0;" edge="1" parent="1" source="lSQBlbb4KLXAiIFJ1kEn-14" target="lSQBlbb4KLXAiIFJ1kEn-29">
          <mxGeometry relative="1" as="geometry" />
        </mxCell>
        <mxCell id="lSQBlbb4KLXAiIFJ1kEn-14" value="throw error" style="rounded=1;whiteSpace=wrap;html=1;arcSize=40;fontColor=#000000;fillColor=#ffffc0;strokeColor=#ff0000;" vertex="1" parent="1">
          <mxGeometry x="200" y="640" width="120" height="40" as="geometry" />
        </mxCell>
        <mxCell id="lSQBlbb4KLXAiIFJ1kEn-33" style="edgeStyle=orthogonalEdgeStyle;rounded=0;orthogonalLoop=1;jettySize=auto;html=1;strokeColor=#FF0000;endArrow=open;endFill=0;" edge="1" parent="1" source="lSQBlbb4KLXAiIFJ1kEn-16" target="lSQBlbb4KLXAiIFJ1kEn-29">
          <mxGeometry relative="1" as="geometry" />
        </mxCell>
        <mxCell id="lSQBlbb4KLXAiIFJ1kEn-16" value="update resource" style="rounded=1;whiteSpace=wrap;html=1;arcSize=40;fontColor=#000000;fillColor=#ffffc0;strokeColor=#ff0000;" vertex="1" parent="1">
          <mxGeometry x="200" y="580" width="120" height="40" as="geometry" />
        </mxCell>
        <mxCell id="lSQBlbb4KLXAiIFJ1kEn-32" style="edgeStyle=orthogonalEdgeStyle;rounded=0;orthogonalLoop=1;jettySize=auto;html=1;strokeColor=#FF0000;endArrow=open;endFill=0;" edge="1" parent="1" source="lSQBlbb4KLXAiIFJ1kEn-18" target="lSQBlbb4KLXAiIFJ1kEn-29">
          <mxGeometry relative="1" as="geometry" />
        </mxCell>
        <mxCell id="lSQBlbb4KLXAiIFJ1kEn-18" value="create resource" style="rounded=1;whiteSpace=wrap;html=1;arcSize=40;fontColor=#000000;fillColor=#ffffc0;strokeColor=#ff0000;" vertex="1" parent="1">
          <mxGeometry x="200" y="520" width="120" height="40" as="geometry" />
        </mxCell>
        <mxCell id="lSQBlbb4KLXAiIFJ1kEn-27" style="edgeStyle=orthogonalEdgeStyle;rounded=0;orthogonalLoop=1;jettySize=auto;html=1;strokeColor=#FF0000;endArrow=open;endFill=0;" edge="1" parent="1" source="lSQBlbb4KLXAiIFJ1kEn-21" target="lSQBlbb4KLXAiIFJ1kEn-23">
          <mxGeometry relative="1" as="geometry" />
        </mxCell>
        <mxCell id="lSQBlbb4KLXAiIFJ1kEn-21" value="generate id" style="rounded=1;whiteSpace=wrap;html=1;arcSize=40;fontColor=#000000;fillColor=#ffffc0;strokeColor=#ff0000;" vertex="1" parent="1">
          <mxGeometry x="-180" y="520" width="120" height="40" as="geometry" />
        </mxCell>
        <mxCell id="lSQBlbb4KLXAiIFJ1kEn-28" style="edgeStyle=orthogonalEdgeStyle;rounded=0;orthogonalLoop=1;jettySize=auto;html=1;strokeColor=#FF0000;endArrow=open;endFill=0;" edge="1" parent="1" source="lSQBlbb4KLXAiIFJ1kEn-23" target="lSQBlbb4KLXAiIFJ1kEn-18">
          <mxGeometry relative="1" as="geometry" />
        </mxCell>
        <mxCell id="lSQBlbb4KLXAiIFJ1kEn-23" value="" style="rhombus;whiteSpace=wrap;html=1;fontColor=#000000;fillColor=#ffffc0;strokeColor=#ff0000;" vertex="1" parent="1">
          <mxGeometry x="-40" y="520" width="80" height="40" as="geometry" />
        </mxCell>
        <mxCell id="lSQBlbb4KLXAiIFJ1kEn-41" style="edgeStyle=orthogonalEdgeStyle;rounded=0;orthogonalLoop=1;jettySize=auto;html=1;strokeColor=#FF0000;endArrow=open;endFill=0;" edge="1" parent="1" source="lSQBlbb4KLXAiIFJ1kEn-29" target="lSQBlbb4KLXAiIFJ1kEn-40">
          <mxGeometry relative="1" as="geometry" />
        </mxCell>
        <mxCell id="lSQBlbb4KLXAiIFJ1kEn-29" value="" style="rhombus;whiteSpace=wrap;html=1;fontColor=#000000;fillColor=#ffffc0;strokeColor=#ff0000;" vertex="1" parent="1">
          <mxGeometry x="360" y="580" width="80" height="40" as="geometry" />
        </mxCell>
        <mxCell id="lSQBlbb4KLXAiIFJ1kEn-40" value="" style="ellipse;html=1;shape=endState;fillColor=#000000;strokeColor=#ff0000;" vertex="1" parent="1">
          <mxGeometry x="480" y="585" width="30" height="30" as="geometry" />
        </mxCell>
      </root>
    </mxGraphModel>
  </diagram>
</mxfile>
